<?xml version="1.0" encoding="utf-8"?>
<!-- Generator: Adobe Illustrator 26.3.1, SVG Export Plug-In . SVG Version: 6.00 Build 0)  -->
<svg version="1.1" id="图层_1" xmlns="http://www.w3.org/2000/svg" xmlns:xlink="http://www.w3.org/1999/xlink" x="0px" y="0px"
	 viewBox="0 0 236.2 56" style="enable-background:new 0 0 236.2 56;" xml:space="preserve">
<style type="text/css">
	.st0{fill:#ffffff;}
	.st1{fill:#ffffff;}
	.st2{fill:#ffffff;}
</style>
<g>
	<g>
		<path class="st0" d="M45,21.8c-0.3-0.8-0.7-1.5-1.3-2.2c-0.6-0.6-1.4-1.1-2.2-1.4c-0.9-0.3-1.9-0.5-2.8-0.5
			c-0.9,0-1.8,0.1-2.6,0.4c-0.8,0.3-1.6,0.6-2.3,1.2c-0.7,0.5-1.4,1.2-1.9,1.9l0,0c-0.5,0.8-0.9,1.6-1.2,2.5c-0.3,1-0.5,2-0.4,3.1
			c0,0.9,0.1,1.7,0.4,2.6c0.2,0.7,0.6,1.4,1,2.1c0.4,0.6,1,1.1,1.6,1.5c0.6,0.4,1.3,0.7,2,0.9c0.7,0.4,1.5,0.5,2.3,0.5
			c0.7,0,1.3-0.1,2-0.2c1.3-0.4,2.5-1,3.5-2l0.1-0.1l-0.8-1.7L42,30.5c-0.7,0.7-1.6,1.3-2.5,1.6l0,0c-0.3,0.1-0.6,0.2-1,0.3
			c-0.4,0.1-0.7,0.1-1.1,0.1c-0.7,0-1.5-0.1-2.2-0.4h0c-0.6-0.2-1.2-0.6-1.7-1.1c-0.5-0.5-0.9-1.1-1.1-1.7l0,0
			c-0.3-0.8-0.4-1.6-0.5-2.4c0-0.8,0.1-1.6,0.4-2.4c0.2-0.7,0.6-1.4,1-2l0,0c0.4-0.6,0.9-1.1,1.5-1.5c0.6-0.4,1.2-0.7,1.8-0.9
			c0.6-0.2,1.3-0.3,1.9-0.3c0.8,0,1.5,0.1,2.2,0.4c0.6,0.2,1.1,0.6,1.6,1.1c0.4,0.5,0.7,1,0.9,1.6l0,0c0.2,0.6,0.3,1.3,0.3,2
			c0,0.5-0.1,1-0.2,1.5c-0.1,0.4-0.3,0.8-0.5,1.1c-0.2,0.3-0.4,0.5-0.7,0.7c-0.2,0.1-0.5,0.2-0.8,0.2c-0.3,0-0.6-0.1-0.8-0.4
			c-0.1-0.5-0.1-1,0-1.4l0.9-4.3h-1.8l-0.1,0.5c-0.1-0.1-0.3-0.3-0.4-0.4c-0.3-0.2-0.7-0.3-1-0.3c-0.5,0-0.9,0.1-1.4,0.3
			c-0.4,0.2-0.8,0.4-1.1,0.8c-0.3,0.3-0.6,0.7-0.8,1.1c-0.2,0.4-0.4,0.8-0.5,1.3c-0.1,0.4-0.2,0.9-0.2,1.4c0,0.6,0.1,1.1,0.4,1.7
			c0.2,0.4,0.6,0.8,1,1.1c0.2,0.1,0.4,0.2,0.7,0.3c0.1,0,0.3,0,0.4,0c0.1,0,0.2,0,0.3,0c0,0,0.1,0,0.1,0c0.2,0,0.4-0.1,0.6-0.1
			c0.1,0,0.1,0,0.2,0c0.3-0.1,0.7-0.3,0.9-0.5c0.2-0.1,0.3-0.3,0.5-0.4c0.1,0.2,0.1,0.4,0.3,0.5c0.2,0.3,0.5,0.5,0.9,0.6
			c0.3,0.1,0.7,0.2,1,0.2c0.4,0,0.8-0.1,1.2-0.3c0.4-0.2,0.8-0.4,1.2-0.7c0.4-0.3,0.7-0.7,1-1.1l0,0c0.3-0.5,0.5-1,0.7-1.5
			c0.2-0.6,0.3-1.3,0.3-1.9C45.5,23.6,45.3,22.7,45,21.8z M37.5,24.3L37.5,24.3c0.2-0.1,0.5-0.2,0.7-0.1c0.2,0,0.4,0,0.5,0.1
			c0.1,0.1,0.2,0.2,0.3,0.4l-0.5,2.8c-0.2,0.3-0.5,0.5-0.8,0.7c-0.2,0.1-0.4,0.2-0.7,0.2c-0.2,0-0.4-0.1-0.5-0.1
			c-0.1-0.1-0.3-0.3-0.4-0.5c-0.1-0.2-0.1-0.5-0.1-0.8c0-0.3,0-0.6,0.1-0.8c0.1-0.3,0.2-0.6,0.3-0.8l0.5-0.7
			C37.1,24.5,37.3,24.3,37.5,24.3L37.5,24.3z"/>
		<g>
			<polygon class="st1" points="9.2,18.8 5.6,18.8 0,34.3 9.6,34.3 10.7,31.3 4.6,31.3 			"/>
			<path class="st1" d="M74.7,19.4c-0.4-0.4-0.8-0.6-1.3-0.8c-0.6-0.2-1.2-0.3-1.8-0.3c-0.8,0-1.6,0.1-2.4,0.3
				c-0.8,0.2-1.6,0.6-2.3,1c-0.8,0.5-1.5,1-2.1,1.7c-0.7,0.7-1.3,1.4-1.8,2.2c-0.6,0.9-1,1.8-1.4,2.8v0c-0.3,0.9-0.6,1.8-0.7,2.8
				c-0.1,0.8,0,1.5,0.2,2.3c0.2,0.6,0.5,1.2,0.9,1.6c0.5,0.4,1,0.8,1.6,1c0.7,0.4,1.4,0.6,2.2,0.5c1,0,2-0.2,3-0.6
				c2.4-1.1,4.4-2.9,5.6-5.3l0.1-0.3L72,27.6l-0.1,0.2c-0.6,1.2-1.5,2.2-2.6,3l0,0c-0.3,0.2-0.7,0.4-1.1,0.5h0l0,0
				c-0.4,0.1-0.8,0.2-1.2,0.1c-0.6,0-1.2-0.2-1.7-0.6c-0.4-0.5-0.6-1-0.6-1.6c0-0.9,0.2-1.8,0.5-2.7c0.3-0.7,0.6-1.5,1.1-2.1l0,0
				c0.4-0.6,0.8-1.1,1.4-1.5l0,0c0.5-0.4,1-0.8,1.5-1c0.5-0.2,1-0.3,1.6-0.3c0.3,0,0.6,0,0.9,0.1c1,0.5,1.5,1.6,1.3,2.7l0,0.3
				l2.9-0.7h0.3l0-0.2C76.4,22.1,75.9,20.5,74.7,19.4z"/>
			<path class="st1" d="M56.5,25.6l-1.7-0.8l0,0c-0.3-0.1-0.6-0.3-0.9-0.5l0,0c-0.2-0.1-0.3-0.2-0.5-0.4c0,0-0.1-0.1-0.1-0.1
				c-0.1-0.2-0.1-0.4,0-0.6c0.1-0.3,0.3-0.6,0.5-0.8c0.3-0.2,0.6-0.4,0.9-0.5l0,0c0.3-0.1,0.7-0.2,1.1-0.1c0.3,0,0.6,0.1,0.9,0.1
				c0.7,0.3,1.1,0.9,1.2,1.7l0.1,0.3l3.1-1.8l0-0.2c-0.2-0.9-0.6-1.6-1.3-2.2l0,0c-0.8-0.7-1.8-1.1-2.9-1h-0.2
				c-0.7,0-1.3,0.1-1.9,0.3l-0.2,0l0,0c-0.7,0.3-1.4,0.6-2,0.9l0,0c-0.6,0.4-1.2,0.9-1.6,1.4l0,0c-0.4,0.5-0.8,1.1-1.1,1.8l0,0
				l0,0.2c-0.2,0.4-0.2,0.9-0.2,1.4c0,0.4,0.1,0.8,0.3,1.2c0.2,0.4,0.4,0.7,0.7,0.9c0.3,0.3,0.6,0.5,0.9,0.6l1.7,0.9
				c0.1,0.1,0.2,0.1,0.3,0.2c0.2,0.1,0.3,0.1,0.5,0.2c0.1,0,0.1,0.1,0.2,0.1c0.1,0.1,0.2,0.2,0.3,0.3c0.1,0.1,0.2,0.2,0.2,0.3
				c0,0.2,0,0.4-0.1,0.6c-0.1,0.3-0.3,0.6-0.6,0.8l0,0l0,0c-0.3,0.2-0.6,0.4-0.9,0.5h0l0,0c-0.4,0.1-0.8,0.2-1.3,0.2
				c-0.3,0-0.6,0-0.9-0.1c-0.5-0.2-1-0.7-1.1-1.3l-0.1-0.3l-3,1.8l0.1,0.2c0.2,0.7,0.6,1.3,1.2,1.8c0.4,0.4,0.8,0.6,1.3,0.8
				c0.5,0.2,1.1,0.3,1.6,0.3c0.9,0,1.7-0.1,2.6-0.4c0.8-0.2,1.5-0.6,2.1-1c0.6-0.4,1.2-0.9,1.7-1.5c0.5-0.5,0.8-1.2,1.1-1.8v0
				c0.3-0.6,0.4-1.3,0.3-2c-0.1-0.5-0.3-1-0.6-1.4C57.5,26.1,57.1,25.8,56.5,25.6z"/>
		</g>
		<g>
			<path class="st2" d="M25.2,24.7l2.9-0.7h0.3l0-0.2c0.3-1.6-0.3-3.2-1.4-4.3c-0.4-0.4-0.8-0.6-1.3-0.8c-0.6-0.2-1.2-0.3-1.8-0.3
				c-0.8,0-1.6,0.1-2.4,0.3c-0.8,0.2-1.6,0.6-2.3,1c-0.8,0.5-1.5,1-2.1,1.7c-0.7,0.7-1.3,1.4-1.8,2.2c-0.6,0.9-1,1.8-1.4,2.8v0
				c-0.3,0.9-0.6,1.8-0.7,2.8c-0.1,0.8,0,1.5,0.2,2.3c0.2,0.6,0.5,1.2,0.9,1.6c0.5,0.4,1,0.8,1.6,1c0.7,0.4,1.4,0.6,2.2,0.5
				c1,0,2-0.2,3-0.6c2.4-1.1,4.4-2.9,5.6-5.3l0.1-0.3l-2.6-0.9l-0.1,0.2c-0.6,1.2-1.5,2.2-2.6,3l0,0c-0.3,0.2-0.7,0.4-1.1,0.5h0l0,0
				c-0.4,0.1-0.8,0.2-1.2,0.1c-0.6,0-1.2-0.2-1.7-0.6c-0.4-0.5-0.6-1-0.6-1.6c0-0.9,0.2-1.8,0.5-2.7c0.3-0.7,0.6-1.5,1.1-2.1l0,0
				c0.4-0.6,0.8-1.1,1.4-1.5l0,0c0.5-0.4,1-0.8,1.5-1c0.5-0.2,1-0.3,1.6-0.3c0.3,0,0.6,0,0.9,0.1c1,0.5,1.5,1.6,1.3,2.7L25.2,24.7z"
				/>
			<path class="st2" d="M54.2,16.1h17.4C67.1,5.4,54.1-1.3,38.8,0.2C26.4,1.4,15.6,7.8,9.5,16.4c5.5-5.6,12.8-9.1,20.6-9.8
				C40.8,5.4,50,9.5,54.2,16.1z"/>
			<path class="st2" d="M30.1,48.2C18.5,49.4,8.6,44.5,5,36.7c3.1,12.5,17,20.7,33.8,19.1C53,54.4,65.2,46.4,70.5,36H52.7
				C48,42.4,39.6,47.2,30.1,48.2z"/>
		</g>
	</g>
	<path class="st2" d="M110.9,15v-4.4H98.1l3.1-0.9c-0.5-1.6-1-3.3-1.7-4.8L95.2,6c0.5,1.5,1,3.1,1.3,4.6H85.9V15H110.9z"/>
	<path class="st2" d="M91.7,28l4.7-1.2c-0.7-3.8-1.5-7.6-2.6-11.3l-4.4,1.1C90.4,20.3,91.2,24.1,91.7,28z"/>
	<path class="st2" d="M112.2,32.8v-4.4h-8.1c1.5-3.9,2.7-7.8,3.7-11.8l-4.9-1c-0.8,4.4-1.9,8.7-3.5,12.8H84.5v4.4H112.2z"/>
	<path class="st2" d="M140.4,33c1.4-0.7,1.9-1.7,1.9-4.1V6h-4.3v23c0,0.6-0.2,0.8-0.8,0.8h-0.5c-0.9,0-2.5,0-4-0.1
		c0.7,1.3,1.2,2.7,1.4,4.2C136.9,33.8,139,33.7,140.4,33z"/>
	<path class="st2" d="M136.4,26V8.7h-4.2v6.2c-1.9-2.5-3.9-4.9-6-7.1c0.2-0.4,0.4-0.8,0.6-1.3l-4-1.3c-1.8,4.1-4.6,7.6-8.3,10.1
		c1.2,1,2.2,2.1,3.1,3.3l0.5-0.3v9.9c0,4,1.2,5.1,5.1,5.1h4.4c3.3,0,4.4-1.3,4.9-5.6c-1.3-0.3-2.6-0.8-3.7-1.6
		c-0.2,3-0.4,3.5-1.5,3.5h-3.4c-1.3,0-1.5-0.2-1.5-1.5v-8.3h3.8c-0.2,2-0.3,2.9-0.5,3.2c-0.2,0.2-0.5,0.4-0.9,0.3
		c-0.7,0-1.4,0-2.2-0.1c0.6,1.1,1,2.4,1,3.6c1.1,0,2.2,0,3.4-0.1c0.9-0.1,1.6-0.5,2.2-1.2c0.7-0.9,1-3.1,1.2-8l0-0.5l1.9-1.8V26
		H136.4z M120.4,16.2c1.4-1.5,2.7-3.1,3.8-4.8c1.3,1.6,2.7,3.3,3.8,4.8H120.4z"/>
	<path class="st2" d="M167.9,17.7v-6.7h5V7h-25.8v4.1h5.6v6.7h-6.6v4.2h6.2c-0.7,3.7-3,7-6.4,8.8c1.3,0.9,2.5,2,3.6,3.3
		c5-3.2,6.8-7.7,7.4-12.1h6.3v12h4.6v-12h5.9v-4.2H167.9z M163.3,17.7h-6v-6.7h6V17.7z"/>
	<path class="st2" d="M197.5,27.7c2.5-2.4,4.4-5.4,5.4-8.8l-3.1-1.4l-0.8,0.2h-8c0.2-0.7,0.5-1.4,0.7-2.1h12.7l0-4.1h-5.2l3.4-2.2
		c-0.8-1.1-2.4-2.8-3.5-4l-3.4,2c1,1.3,2.5,3.1,3.2,4.2h-6.2c0.4-1.8,0.7-3.6,0.9-5.5l-4.9-0.8c-0.2,2.1-0.6,4.3-1,6.4h-3.4
		c0.8-1.6,1.5-3.2,2-4.9l-4.6-0.7c-0.5,1.9-1.2,3.7-2.2,5.3c-0.3,0.6-0.8,1-1.4,1.3c0.5,1,1.1,3,1.4,3.9c0.2-0.5,1.7-0.8,3.1-0.8
		h3.8c-1.9,5.5-5.1,9.8-10.3,12.4c1.2,1,2.3,2.2,3.2,3.6c3.3-1.7,6.1-4.1,8.2-7.1c0.7,1.1,1.6,2.2,2.5,3.1c-2.3,1.2-4.7,2-7.2,2.4
		c0.9,1.2,1.7,2.5,2.3,3.9c3-0.7,5.9-1.8,8.6-3.4c2.8,1.7,5.8,2.8,9,3.4c0.7-1.4,1.6-2.8,2.7-4C202.7,29.5,200,28.8,197.5,27.7z
		 M193.6,25.2c-1.2-1-2.2-2.1-3.1-3.4h6.1C195.8,23.1,194.8,24.3,193.6,25.2z"/>
	<path class="st2" d="M215.2,33.8V20.7c0.4,1,0.8,2.1,1.1,3.1l2.5-3.2c-0.5-0.9-2.8-4.5-3.6-5.5v-0.3h3v-4h-3V5.3h-4.1v5.5h-3.4v4
		h3.2c-0.8,3.4-2.3,7.4-4,9.5c0.7,1.4,1.4,2.9,1.9,4.4c1-1.7,1.7-3.5,2.3-5.4v10.4H215.2z"/>
	<path class="st2" d="M230.9,26.5c2.1-3.9,3.5-8.1,3.8-12.5l-2.7-0.8l-0.8,0.1h-8V11c4.2-0.1,8.3-0.9,12.2-2.1l-3-3.5
		c-3.3,1.2-8.6,1.9-13.5,2v7c0,4.9-0.3,12.2-3.7,17.1c1.3,0.7,2.5,1.5,3.6,2.5c0.7-1,1.3-2.2,1.8-3.3c0.8,1,1.5,2,2.2,3.2
		c2-1,3.8-2.3,5.3-3.8c1.4,1.6,3.1,3,5.1,3.9c0.8-1.4,1.7-2.7,2.9-3.8C234.1,29.4,232.4,28.2,230.9,26.5z M221,30
		c1.2-3.6,1.9-7.3,2.1-11c0.6,2.6,1.4,5.1,2.6,7.4C224.5,27.9,222.8,29.1,221,30z M228.3,22.3c-0.7-1.6-1.3-3.4-1.7-5.1h3.4
		C229.7,19,229.1,20.7,228.3,22.3z"/>
	<path class="st2" d="M88.4,52l1.3-5.3c0.2-0.8,0.3-1.5,0.4-2.2h0.1c0.1,0.7,0.3,1.4,0.4,2.2l1.3,5.3h1.9l1.9-9.6h-1.4l-0.9,5
		c-0.2,1-0.3,2-0.5,3.1h-0.1c-0.2-1-0.4-2.1-0.7-3.1l-1.2-5h-1.3l-1.2,5c-0.2,1-0.4,2-0.7,3.1h-0.1l-0.5-3.1l-0.9-5h-1.6l2,9.6H88.4
		z"/>
	<path class="st2" d="M103.5,52l1.3-5.3c0.2-0.8,0.3-1.5,0.4-2.2h0.1c0.1,0.7,0.3,1.4,0.4,2.2L107,52h1.9l1.9-9.6h-1.4l-0.9,5
		c-0.2,1-0.3,2-0.5,3.1h-0.1c-0.2-1-0.4-2.1-0.7-3.1l-1.2-5h-1.3l-1.2,5c-0.2,1-0.4,2-0.7,3.1h-0.1l-0.5-3.1l-0.9-5h-1.6l2,9.6
		H103.5z"/>
	<path class="st2" d="M118.7,52l1.3-5.3c0.2-0.8,0.3-1.5,0.4-2.2h0.1c0.1,0.7,0.3,1.4,0.4,2.2l1.3,5.3h1.9l1.9-9.6h-1.4l-0.9,5
		c-0.2,1-0.3,2-0.5,3.1H123c-0.2-1-0.4-2.1-0.7-3.1l-1.2-5h-1.3l-1.2,5c-0.2,1-0.4,2-0.7,3.1h-0.1l-0.5-3.1l-0.9-5h-1.6l2,9.6H118.7
		z"/>
	<path class="st2" d="M131.2,52.2c0.6,0,1-0.4,1-1c0,0,0,0,0,0c0-0.6-0.4-1-1-1.1c0,0,0,0,0,0c-0.6,0-1,0.5-1,1c0,0,0,0,0,0
		C130.1,51.7,130.6,52.1,131.2,52.2C131.1,52.2,131.1,52.2,131.2,52.2z"/>
	<path class="st2" d="M143.4,52v-1.3h-4v-8.3h-1.5V52H143.4z"/>
	<path class="st2" d="M151.9,52.2c1.2,0,2.2-0.5,3-1.4l-0.8-0.9c-0.5,0.6-1.3,1-2.1,1c-1.7,0-2.8-1.4-2.8-3.7c0-2.2,1.1-3.6,2.8-3.6
		c0.7,0,1.4,0.3,1.9,0.9l0.8-1c-0.7-0.8-1.7-1.2-2.7-1.2c-2.4,0-4.3,1.9-4.3,5S149.5,52.2,151.9,52.2z"/>
	<path class="st2" d="M161.6,52v-2.9l1.5-1.8l2.7,4.7h1.7l-3.5-5.9l3-3.7h-1.7l-3.6,4.5h0v-4.5h-1.5V52H161.6z"/>
	<path class="st2" d="M173.7,52v-4.1h3.5v-1.3h-3.5v-2.9h4.2v-1.3h-5.7V52H173.7z"/>
	<path class="st2" d="M188,46.9L188,46.9c0.9-0.4,1.4-1.2,1.4-2.1c0-1.7-1.4-2.4-3.4-2.4h-3V52h3.2c2.1,0,3.7-0.9,3.7-2.8
		C190,48.1,189.1,47.1,188,46.9z M184.5,43.6h1.3c1.4,0,2,0.4,2,1.4c0,0.9-0.6,1.4-2.1,1.4h-1.3V43.6z M186.1,50.8h-1.5v-3.3h1.5
		c1.5,0,2.4,0.5,2.4,1.5C188.4,50.3,187.6,50.8,186.1,50.8z"/>
	<path class="st2" d="M195.9,52.2c0.6,0,1-0.4,1-1c0,0,0,0,0,0c0-0.6-0.4-1-1-1.1c0,0,0,0,0,0c-0.6,0-1,0.5-1,1c0,0,0,0,0,0
		C194.9,51.7,195.3,52.1,195.9,52.2C195.9,52.2,195.9,52.2,195.9,52.2z"/>
	<path class="st2" d="M206.3,52.2c1.2,0,2.2-0.5,3-1.4l-0.8-0.9c-0.5,0.6-1.3,1-2.1,1c-1.7,0-2.8-1.4-2.8-3.7c0-2.2,1.1-3.6,2.8-3.6
		c0.7,0,1.4,0.3,1.9,0.9l0.8-1c-0.7-0.8-1.7-1.2-2.7-1.2c-2.4,0-4.3,1.9-4.3,5S203.9,52.2,206.3,52.2z"/>
	<path class="st2" d="M217.7,42.3c-2.5,0-4.2,1.8-4.2,4.9s1.7,5,4.2,5c2.5,0,4.2-1.9,4.2-5S220.1,42.3,217.7,42.3z M217.7,50.9
		c-1.6,0-2.6-1.4-2.6-3.7s1-3.6,2.6-3.6s2.6,1.4,2.6,3.6S219.3,50.9,217.7,50.9z"/>
	<path class="st2" d="M228.7,52v-4.7c0-0.9-0.1-2.1-0.2-3h0.1l0.8,2.2l1.7,4.6h0.9l1.7-4.6l0.8-2.2h0.1c-0.1,0.9-0.2,2.1-0.2,3V52
		h1.4v-9.6h-1.7l-1.7,4.8c-0.2,0.6-0.4,1.3-0.6,1.9h-0.1c-0.2-0.6-0.4-1.3-0.6-1.9l-1.8-4.8h-1.7V52H228.7z"/>
</g>
</svg>
